<?xml version="1.0" encoding="utf-8"?>
<!-- Generator: Adobe Illustrator 27.5.0, SVG Export Plug-In . SVG Version: 6.00 Build 0)  -->
<svg version="1.1" id="Layer_1" xmlns="http://www.w3.org/2000/svg" xmlns:xlink="http://www.w3.org/1999/xlink" x="0px" y="0px"
	 viewBox="0 0 2800 1700" style="enable-background:new 0 0 2800 1700;" xml:space="preserve">
<g>
	<defs>
		<rect id="SVGID_1_" width="2800" height="1700"/>
	</defs>
	<clipPath id="SVGID_00000136403923927001068720000006643108494664328320_">
		<use xlink:href="#SVGID_1_"  style="overflow:visible;"/>
	</clipPath>
	<g style="clip-path:url(#SVGID_00000136403923927001068720000006643108494664328320_);">
		
			<linearGradient id="SVGID_00000105405350338844286800000016571444414838701730_" gradientUnits="userSpaceOnUse" x1="2787.5688" y1="1673.6161" x2="13.034" y2="26.7417">
			<stop  offset="0" style="stop-color:#F9C639"/>
			<stop  offset="1" style="stop-color:#FFDA55"/>
		</linearGradient>
		<rect style="fill:url(#SVGID_00000105405350338844286800000016571444414838701730_);" width="2800" height="1700"/>
		<g>
			<g>
				<g>
					<path d="M2335.76,922.938h-874.09c-34.537,0-62.534-27.997-62.534-62.534v-9.998c0-34.537,27.997-62.534,62.534-62.534h874.09
						c34.537,0,62.534,27.997,62.534,62.534v9.998C2398.294,894.941,2370.297,922.938,2335.76,922.938z"/>
					<path style="fill:#FFFFFF;" d="M1466.669,916.459c-33.665,0-61.053-27.389-61.053-61.053c0-33.665,27.389-61.054,61.053-61.054
						h864.092c33.665,0,61.053,27.389,61.053,61.054c0,33.665-27.389,61.053-61.053,61.053H1466.669z"/>
					<path d="M2335.76,922.938h-109.294c-34.537,0-62.534-27.997-62.534-62.534v-9.998c0-34.537,27.998-62.534,62.534-62.534
						h109.294c34.537,0,62.534,27.997,62.534,62.534v9.998C2398.294,894.941,2370.297,922.938,2335.76,922.938z"/>
					<g>
						<path style="fill:#FFFFFF;" d="M2243.438,855.442c0-13.259,7.97-21.342,18.868-21.342c5.696,0,9.448,2.585,11.853,5.069
							l-2.865,3.406c-2.084-2.149-4.721-3.877-8.849-3.877c-8.283,0-13.605,6.364-13.605,16.604c0,10.333,4.887,16.81,13.656,16.81
							c2.949,0,5.785-0.884,7.408-2.414v-10.705h-8.705v-4.335h13.475v17.28c-2.644,2.756-7.146,4.773-12.671,4.773
							C2251.157,876.712,2243.438,868.792,2243.438,855.442z"/>
						<path style="fill:#FFFFFF;" d="M2283.65,855.257c0-13.167,7.245-21.158,17.569-21.158c10.325,0,17.57,8.014,17.57,21.158
							c0,13.166-7.245,21.454-17.57,21.454C2290.895,876.712,2283.65,868.423,2283.65,855.257z M2313.386,855.257
							c0-10.242-4.827-16.559-12.167-16.559c-7.339,0-12.167,6.317-12.167,16.559c0,10.24,4.828,16.855,12.167,16.855
							C2308.559,872.112,2313.386,865.498,2313.386,855.257z"/>
					</g>
				</g>
				<g>
					<path d="M1452.55,826.672h5.152v12.205l-0.185,6.258c2.842-2.75,5.928-5.038,10.109-5.038c6.414,0,9.295,4.139,9.295,11.907
						v19.291h-5.152v-18.626c0-5.672-1.715-8.099-5.745-8.099c-3.112,0-5.269,1.589-8.323,4.676v22.048h-5.152V826.672z"/>
					<path d="M1489.093,861.881v-16.836h-4.53v-3.9l4.761-0.297l0.619-8.538h4.302v8.538h8.249v4.197h-8.249v16.926
						c0,3.722,1.2,5.878,4.709,5.878c1.081,0,2.479-0.409,3.468-0.817l0.995,3.887c-1.707,0.58-3.748,1.127-5.648,1.127
						C1491.288,872.047,1489.093,867.94,1489.093,861.881z"/>
					<path d="M1510.578,861.881v-16.836h-4.53v-3.9l4.761-0.297l0.619-8.538h4.302v8.538h8.249v4.197h-8.249v16.926
						c0,3.722,1.2,5.878,4.709,5.878c1.081,0,2.479-0.409,3.468-0.817l0.996,3.887c-1.707,0.58-3.748,1.127-5.649,1.127
						C1512.773,872.047,1510.578,867.94,1510.578,861.881z"/>
					<path d="M1532.411,840.848h4.256l0.434,3.515h0.172c2.753-2.287,6.178-4.266,9.706-4.266c7.865,0,12.071,6.105,12.071,15.514
						c0,10.377-6.23,16.436-13.186,16.436c-2.788,0-5.644-1.286-8.44-3.528l0.138,5.314v10.306h-5.152V840.848z M1553.728,855.656
						c0-6.719-2.295-11.223-8.027-11.223c-2.579,0-5.177,1.417-8.139,4.154v15.959c2.757,2.315,5.402,3.166,7.413,3.166
						C1550.015,867.711,1553.728,863.173,1553.728,855.656z"/>
					<path d="M1565.238,867.82l2.543-3.393c2.644,2.129,5.331,3.607,8.988,3.607c3.997,0,5.982-2.13,5.982-4.729
						c0-3.133-3.593-4.518-6.963-5.771c-4.266-1.559-9.079-3.659-9.079-8.794c0-4.871,3.902-8.643,10.501-8.643
						c3.79,0,7.106,1.552,9.466,3.421l-2.464,3.301c-2.097-1.549-4.249-2.709-6.944-2.709c-3.835,0-5.605,2.045-5.605,4.366
						c0,2.895,3.31,3.996,6.758,5.283c4.391,1.655,9.284,3.441,9.284,9.236c0,4.938-3.922,9.052-11.107,9.052
						C1572.271,872.047,1568.099,870.214,1565.238,867.82z"/>
					<path d="M1595.363,845.561c0-2.365,1.68-3.98,3.73-3.98c2.049,0,3.729,1.615,3.729,3.98c0,2.288-1.68,3.902-3.729,3.902
						C1597.043,849.463,1595.363,847.849,1595.363,845.561z M1595.363,868.145c0-2.365,1.68-3.98,3.73-3.98
						c2.049,0,3.729,1.615,3.729,3.98c0,2.288-1.68,3.902-3.729,3.902C1597.043,872.047,1595.363,870.432,1595.363,868.145z"/>
					<path d="M1625.813,826.825h3.723l-16.724,54.492h-3.723L1625.813,826.825z"/>
					<path d="M1649.302,826.825h3.723l-16.724,54.492h-3.723L1649.302,826.825z"/>
					<path d="M1656.929,840.848h5.265l4.518,17.587c0.659,2.895,1.226,5.631,1.807,8.492h0.251c0.659-2.861,1.318-5.643,2.07-8.492
						l4.702-17.587h5.028l4.748,17.587c0.752,2.895,1.411,5.631,2.117,8.492h0.251c0.659-2.861,1.227-5.597,1.886-8.492
						l4.439-17.587h4.908l-8.17,30.447h-6.272l-4.393-16.362c-0.738-2.881-1.319-5.683-2.057-8.771h-0.25
						c-0.66,3.088-1.273,5.969-2.091,8.85l-4.267,16.282h-6.022L1656.929,840.848z"/>
					<path d="M1703.467,840.848h5.265l4.518,17.587c0.659,2.895,1.227,5.631,1.807,8.492h0.251c0.659-2.861,1.318-5.643,2.07-8.492
						l4.702-17.587h5.028l4.748,17.587c0.752,2.895,1.411,5.631,2.117,8.492h0.251c0.659-2.861,1.227-5.597,1.886-8.492
						l4.439-17.587h4.908l-8.17,30.447h-6.272l-4.393-16.362c-0.738-2.881-1.319-5.683-2.057-8.771h-0.25
						c-0.66,3.088-1.273,5.969-2.091,8.85l-4.267,16.282h-6.022L1703.467,840.848z"/>
					<path d="M1750.006,840.848h5.265l4.518,17.587c0.659,2.895,1.227,5.631,1.807,8.492h0.251c0.659-2.861,1.318-5.643,2.07-8.492
						l4.702-17.587h5.028l4.748,17.587c0.752,2.895,1.411,5.631,2.117,8.492h0.251c0.659-2.861,1.227-5.597,1.886-8.492
						l4.439-17.587h4.908l-8.17,30.447h-6.272l-4.392-16.362c-0.738-2.881-1.319-5.683-2.058-8.771h-0.25
						c-0.66,3.088-1.273,5.969-2.091,8.85l-4.267,16.282h-6.022L1750.006,840.848z"/>
				</g>
			</g>
			<g>
				<path d="M401.705,1036.1l65.212-77.908c35.72,31.092,82.045,52.486,123.377,52.486c47.399,0,70.595-18.665,70.595-48.476
					c0-31.626-28.55-41.772-72.43-59.811l-65.269-27.829c-52.047-21.17-101.362-63.925-101.362-136.909
					c0-83.234,74.352-149.698,178.897-149.698c57.841,0,118.321,22.796,161.576,65.821l-57.321,71.566
					c-33.094-25.387-64.551-39.342-104.255-39.342c-39.149,0-64.071,16.31-64.071,45.035c0,30.805,32.856,41.996,76.696,59.449
					l63.999,25.927c61.337,24.795,99.636,65.642,99.636,136.628c0,83.418-69.541,155.684-189.229,155.684
					C522.391,1108.723,452.937,1083.973,401.705,1036.1z"/>
				<path d="M862.645,597.198h314.714v95.235H976.201v100.859h171.244v95.229H976.201v115.716h208.863v95.235H862.645V597.198z"/>
			</g>
			<g>
				<path d="M401.705,1208.293l4.379-5.155c3.031,2.888,7.099,4.831,11.037,4.831c4.767,0,7.384-2.164,7.384-5.466
					c0-3.486-2.733-4.599-6.581-6.232l-5.791-2.513c-4.172-1.736-8.563-5.04-8.563-11.231c0-6.75,5.959-11.945,14.224-11.945
					c4.949,0,9.742,2.047,13.059,5.402l-3.861,4.767c-2.694-2.292-5.57-3.641-9.198-3.641c-4.016,0-6.633,1.879-6.633,4.975
					c0,3.329,3.226,4.56,6.737,5.997l5.713,2.397c5.039,2.098,8.563,5.285,8.563,11.425c0,6.866-5.7,12.592-15.209,12.592
					C411.24,1214.499,405.722,1212.245,401.705,1208.293z"/>
				<path d="M439.909,1171.36h25.494v6.321h-17.981v10.856h15.235v6.321h-15.235v12.54h18.629v6.322h-26.142V1171.36z"/>
				<path d="M483.048,1171.36h8.809l13.81,42.361h-7.954l-6.452-22.541c-1.347-4.483-2.591-9.314-3.835-13.965h-0.259
					c-1.166,4.69-2.41,9.483-3.757,13.965l-6.503,22.541h-7.669L483.048,1171.36z M477.4,1196.349h19.95v5.895H477.4V1196.349z"/>
				<path d="M510.513,1171.36h14.276c8.809,0,15.598,3.108,15.598,12.565c0,9.108-6.789,13.24-15.598,13.24h-6.762v16.556h-7.513
					V1171.36z M524.012,1191.154c5.803,0,8.964-2.409,8.964-7.229c0-4.871-3.161-6.555-8.964-6.555h-5.985v13.783H524.012z
					 M523.377,1195.158l5.441-4.483l13.227,23.046h-8.446L523.377,1195.158z"/>
				<path d="M546.631,1192.683c0-13.862,8.679-22.101,19.405-22.101c5.311,0,9.535,2.539,12.204,5.363l-4.016,4.846
					c-2.176-2.177-4.715-3.68-8.032-3.68c-6.892,0-11.84,5.83-11.84,15.339c0,9.664,4.56,15.52,11.659,15.52
					c3.757,0,6.659-1.736,9.042-4.353l4.016,4.716c-3.433,3.99-7.85,6.166-13.343,6.166
					C555.078,1214.499,546.631,1206.7,546.631,1192.683z"/>
				<path d="M586.169,1171.36h7.513v17.021h17.126v-17.021h7.514v42.361h-7.514v-18.784h-17.126v18.784h-7.513V1171.36z"/>
				<path d="M642.068,1171.36h25.494v6.321h-17.981v10.856h15.235v6.321h-15.235v12.54h18.629v6.322h-26.142V1171.36z"/>
				<path d="M676.916,1171.36h7.72l13.162,23.809l4.378,9.042h0.259c-0.363-4.378-0.959-9.741-0.959-14.457v-18.394h7.151v42.361
					h-7.721l-13.162-23.85l-4.379-9.003h-0.259c0.363,4.483,0.959,9.587,0.959,14.302v18.55h-7.151V1171.36z"/>
				<path d="M717.179,1192.683c0-13.862,8.783-22.101,20.053-22.101c6.011,0,10.131,2.643,12.799,5.363l-4.016,4.846
					c-2.125-2.073-4.612-3.68-8.55-3.68c-7.514,0-12.566,5.83-12.566,15.339c0,9.664,4.482,15.52,12.981,15.52
					c2.358,0,4.69-0.674,6.037-1.865v-9.146h-7.98v-6.166h14.716v18.68c-2.824,2.85-7.721,5.027-13.525,5.027
					C725.703,1214.499,717.179,1206.7,717.179,1192.683z"/>
				<path d="M760.085,1171.36h7.513v42.361h-7.513V1171.36z"/>
				<path d="M778.351,1171.36h7.721l13.162,23.809l4.378,9.042h0.259c-0.363-4.378-0.959-9.741-0.959-14.457v-18.394h7.151v42.361
					h-7.721l-13.162-23.85l-4.379-9.003h-0.259c0.363,4.483,0.959,9.587,0.959,14.302v18.55h-7.151V1171.36z"/>
				<path d="M820.843,1171.36h25.494v6.321h-17.981v10.856h15.235v6.321h-15.235v12.54h18.629v6.322h-26.142V1171.36z"/>
				<path d="M866.417,1192.372c0-13.706,7.643-21.79,18.68-21.79s18.681,8.122,18.681,21.79c0,13.706-7.644,22.127-18.681,22.127
					S866.417,1206.078,866.417,1192.372z M896.057,1192.372c0-9.509-4.301-15.261-10.96-15.261s-10.96,5.752-10.96,15.261
					c0,9.508,4.301,15.597,10.96,15.597S896.057,1201.88,896.057,1192.372z"/>
				<path d="M912.303,1171.36h13.343c9.405,0,16.375,3.264,16.375,13.058c0,9.444-6.996,13.732-16.116,13.732h-6.089v15.571h-7.513
					V1171.36z M925.283,1192.139c6.322,0,9.328-2.513,9.328-7.72c0-5.26-3.29-7.048-9.587-7.048h-5.208v14.768H925.283z"/>
				<path d="M957.32,1177.682h-12.229v-6.321h31.972v6.321h-12.229v36.04h-7.513V1177.682z"/>
				<path d="M984.136,1171.36h7.513v42.361h-7.513V1171.36z"/>
				<path d="M1002.402,1171.36h8.498l7.488,20.701c0.932,2.694,1.787,5.545,2.72,8.316h0.26c0.932-2.771,1.736-5.622,2.669-8.316
					l7.332-20.701h8.498v42.361h-6.892v-19.38c0-3.912,0.596-9.547,0.959-13.473h-0.26l-3.42,9.846l-6.969,19.029h-4.456
					l-6.995-19.029l-3.369-9.846h-0.258c0.362,3.925,0.959,9.56,0.959,13.473v19.38h-6.763V1171.36z"/>
				<path d="M1050.659,1171.36h7.514v42.361h-7.514V1171.36z"/>
				<path d="M1066.127,1209.213l20.494-31.531h-18.603v-6.321h27.879v4.508l-20.495,31.531h20.676v6.322h-29.951V1209.213z"/>
				<path d="M1111.933,1171.36h8.809l13.811,42.361h-7.955l-6.451-22.541c-1.347-4.483-2.591-9.314-3.835-13.965h-0.259
					c-1.166,4.69-2.41,9.483-3.757,13.965l-6.503,22.541h-7.669L1111.933,1171.36z M1106.285,1196.349h19.951v5.895h-19.951
					V1196.349z"/>
				<path d="M1144.192,1177.682h-12.229v-6.321h31.972v6.321h-12.229v36.04h-7.513V1177.682z"/>
				<path d="M1171.007,1171.36h7.514v42.361h-7.514V1171.36z"/>
				<path d="M1187.045,1192.372c0-13.706,7.643-21.79,18.681-21.79c11.037,0,18.68,8.122,18.68,21.79
					c0,13.706-7.643,22.127-18.68,22.127C1194.688,1214.499,1187.045,1206.078,1187.045,1192.372z M1216.684,1192.372
					c0-9.509-4.3-15.261-10.958-15.261c-6.659,0-10.96,5.752-10.96,15.261c0,9.508,4.3,15.597,10.96,15.597
					C1212.384,1207.969,1216.684,1201.88,1216.684,1192.372z"/>
				<path d="M1232.931,1171.36h7.722l13.162,23.809l4.379,9.042h0.258c-0.362-4.378-0.959-9.741-0.959-14.457v-18.394h7.151v42.361
					h-7.72l-13.163-23.85l-4.378-9.003h-0.26c0.363,4.483,0.959,9.587,0.959,14.302v18.55h-7.151V1171.36z"/>
			</g>
		</g>
		<defs>
			<filter id="Adobe_OpacityMaskFilter" filterUnits="userSpaceOnUse" x="1187.04" y="660.56" width="1038.98" height="1065.61">
				<feFlood  style="flood-color:white;flood-opacity:1" result="back"/>
				<feBlend  in="SourceGraphic" in2="back" mode="normal"/>
			</filter>
		</defs>
		
			<mask maskUnits="userSpaceOnUse" x="1187.04" y="660.56" width="1038.98" height="1065.61" id="SVGID_00000052104218827530137050000012426043993855681695_">
			<g style="filter:url(#Adobe_OpacityMaskFilter);">
				<defs>
					
						<filter id="Adobe_OpacityMaskFilter_00000104703248969135316540000001541095909395292809_" filterUnits="userSpaceOnUse" x="1187.04" y="660.56" width="1038.98" height="1065.61">
						<feFlood  style="flood-color:white;flood-opacity:1" result="back"/>
						<feBlend  in="SourceGraphic" in2="back" mode="normal"/>
					</filter>
				</defs>
				
					<mask maskUnits="userSpaceOnUse" x="1187.04" y="660.56" width="1038.98" height="1065.61" id="SVGID_00000052104218827530137050000012426043993855681695_">
					<g style="filter:url(#Adobe_OpacityMaskFilter_00000104703248969135316540000001541095909395292809_);">
					</g>
				</mask>
				
					<linearGradient id="SVGID_00000150076278936233135310000003766539696966776734_" gradientUnits="userSpaceOnUse" x1="1815.371" y1="1046.9951" x2="1608.4976" y2="1305.5869">
					<stop  offset="0" style="stop-color:#FFFFFF"/>
					<stop  offset="0.2263" style="stop-color:#FFFFFF"/>
					<stop  offset="1" style="stop-color:#1A1A1A"/>
				</linearGradient>
				
					<path style="mask:url(#SVGID_00000052104218827530137050000012426043993855681695_);fill:url(#SVGID_00000150076278936233135310000003766539696966776734_);" d="
					M2226.02,1520.77l-270.27,205.4l-768.71-776.79l84.2-164.52l63.61-124.3l11.37,10.98c-91.03,103.48-87.13,261.28,11.67,360.08
					c101.05,101.05,263.74,102.86,366.99,5.42l11.6,11.2L2226.02,1520.77z"/>
			</g>
		</mask>
		
			<linearGradient id="SVGID_00000105408150309542026900000016037136343520659629_" gradientUnits="userSpaceOnUse" x1="1815.371" y1="1046.9951" x2="1608.4976" y2="1305.5869">
			<stop  offset="0" style="stop-color:#000000"/>
			<stop  offset="0.2263" style="stop-color:#4D4D4D"/>
			<stop  offset="1" style="stop-color:#FFFFFF"/>
		</linearGradient>
		<path style="opacity:0.6;fill:url(#SVGID_00000105408150309542026900000016037136343520659629_);" d="M2226.02,1520.77
			l-270.27,205.4l-768.71-776.79l84.2-164.52l63.61-124.3l11.37,10.98c-91.03,103.48-87.13,261.28,11.67,360.08
			c101.05,101.05,263.74,102.86,366.99,5.42l11.6,11.2L2226.02,1520.77z"/>
		<g>
			
				<rect x="1757.933" y="1009.017" transform="matrix(0.7071 -0.7071 0.7071 0.7071 -245.2551 1580.3687)" width="54.226" height="154.432"/>
			
				<rect x="1714.512" y="1065.803" transform="matrix(0.7071 0.7071 -0.7071 0.7071 1290.9095 -944.0675)" style="fill:#212222;" width="141.067" height="40.86"/>
			
				<rect x="1784.013" y="1013.166" transform="matrix(0.7071 -0.7071 0.7071 0.7071 -240.2667 1583.8722)" style="opacity:0.8;fill:#F2F2F2;" width="15.513" height="137.596"/>
			<g>
				<path d="M1741.82,647.69c-109.15-109.15-286.15-109.15-395.29,0c-39.1,39.1-64.2,86.9-75.29,137.17
					c-19.89,90.09,5.2,188.09,75.26,258.15c107.4,107.4,280.45,109.14,389.98,5.23c1.81-1.72,3.6-3.46,5.37-5.23
					C1850.99,933.86,1850.99,756.86,1741.82,647.69z M1730.46,1031.62c-1.84,1.84-3.7,3.64-5.58,5.42
					c-103.25,97.44-265.94,95.63-366.99-5.42c-98.8-98.8-102.7-256.6-11.67-360.08c3.74-4.25,7.63-8.4,11.69-12.46
					c102.87-102.87,269.66-102.87,372.52,0C1833.32,761.96,1833.32,928.76,1730.46,1031.62z"/>
				<path style="fill:#424343;" d="M1349.502,1040.009c-108.652-108.652-109.148-284.542-1.441-393.808
					c-0.52,0.472-1.039,0.992-1.536,1.488c-109.172,109.172-109.172,286.172-0.024,395.32
					c109.172,109.172,286.171,109.172,395.343,0c0.496-0.496,1.016-1.016,1.488-1.536
					C1634.067,1149.18,1458.178,1148.684,1349.502,1040.009z"/>
				<path style="opacity:0.8;fill:#F2F2F2;" d="M1357.909,659.096c-102.864,102.864-102.887,269.681-0.023,372.545
					c102.888,102.888,269.705,102.864,372.568,0c102.864-102.864,102.864-269.657-0.023-372.545
					C1627.567,556.232,1460.773,556.232,1357.909,659.096z M1725.729,1026.916c-100.099,100.099-262.995,100.076-363.095-0.024
					c-100.1-100.1-100.099-262.972,0-363.071c100.1-100.1,262.972-100.1,363.072,0S1825.829,926.816,1725.729,1026.916z"/>
				
					<radialGradient id="SVGID_00000025405804028004750130000016113222815970572734_" cx="1852.0023" cy="878.0551" r="256.7411" gradientTransform="matrix(0.7071 -0.7071 0.7071 0.7071 -386.2417 1534.0469)" gradientUnits="userSpaceOnUse">
					<stop  offset="0" style="stop-color:#FFFFFF"/>
					<stop  offset="1" style="stop-color:#000000"/>
				</radialGradient>
				<path style="opacity:0.2;fill:url(#SVGID_00000025405804028004750130000016113222815970572734_);" d="M1725.706,663.821
					c100.1,100.1,100.124,262.995,0.023,363.095c-100.099,100.099-262.995,100.076-363.095-0.024
					c-100.1-100.1-100.099-262.972,0-363.071C1462.734,563.721,1625.606,563.721,1725.706,663.821z"/>
			</g>
			<g>
				<path d="M1862.802,1104.879l384.925,384.925c-7.513,14.789-17.648,27.948-29.792,38.911c-4.465,4.087-9.261,7.843-14.293,11.269
					c-4.772,3.308-9.804,6.308-15.026,8.931l-384.925-384.925c2.646-5.198,5.647-10.23,8.93-15.026
					c3.426-5.032,7.206-9.804,11.293-14.269C1834.878,1122.551,1848.037,1112.416,1862.802,1104.879z"/>
				<path style="fill:#212222;" d="M1862.802,1104.879l384.925,384.925c-3.898,7.631-8.458,14.836-13.655,21.499l-392.745-392.745
					C1847.99,1113.361,1855.172,1108.777,1862.802,1104.879z"/>
				<path style="opacity:0.8;fill:#F2F2F2;" d="M1823.916,1134.695l394.02,394.021c-4.465,4.087-9.261,7.843-14.293,11.269
					l-391.02-391.02C1816.049,1143.932,1819.828,1139.16,1823.916,1134.695z"/>
			</g>
			<path style="fill:#F2F2F2;" d="M1372.96,727.799c-14.96-5.703-54.117,30.79-63.578,80.533
				c-9.819,49.699,9.829,81.925,23.35,78.594c14.393-3.066,19.852-34.12,31.003-75.285
				C1374.263,770.544,1388.29,732.909,1372.96,727.799z"/>
		</g>
	</g>
</g>
</svg>
